<?xml version="1.0" encoding="UTF-8" standalone="no"?>
<!DOCTYPE svg PUBLIC "-//W3C//DTD SVG 1.1//EN" "http://www.w3.org/Graphics/SVG/1.1/DTD/svg11.dtd">
<svg width="100%" height="100%" viewBox="0 0 400 400" version="1.1" xmlns="http://www.w3.org/2000/svg" xmlns:xlink="http://www.w3.org/1999/xlink" xml:space="preserve" xmlns:serif="http://www.serif.com/" style="fill-rule:evenodd;clip-rule:evenodd;stroke-linecap:square;stroke-miterlimit:1.5;">
    <rect x="-48.129" y="-29.142" width="821.96" height="671.526" style="fill-opacity:0.79;stroke:white;stroke-width:13.82px;"/>
    <g id="Layer1">
        <path d="M110.918,257.345C142.034,257.345 167.295,281.006 167.295,310.149C167.295,339.292 142.034,362.953 110.918,362.953C79.803,362.953 54.541,339.292 54.541,310.149C54.541,281.006 79.803,257.345 110.918,257.345ZM110.918,270.546C134.255,270.546 153.201,288.291 153.201,310.149C153.201,332.006 134.255,349.752 110.918,349.752C87.582,349.752 68.635,332.006 68.635,310.149C68.635,288.291 87.582,270.546 110.918,270.546Z" style="fill:white;"/>
        <path d="M110.918,278.784C128.229,278.784 142.283,292.838 142.283,310.149C142.283,327.46 128.229,341.514 110.918,341.514C93.607,341.514 79.553,327.46 79.553,310.149C79.553,292.838 93.607,278.784 110.918,278.784ZM110.918,294.466C119.573,294.466 126.6,301.494 126.6,310.149C126.6,318.804 119.573,325.831 110.918,325.831C102.263,325.831 95.236,318.804 95.236,310.149C95.236,301.494 102.263,294.466 110.918,294.466Z" style="fill:white;"/>
        <g transform="matrix(1,0,0,1,227.705,-52.804)">
            <path d="M110.918,257.345C142.034,257.345 167.295,281.006 167.295,310.149C167.295,339.292 142.034,362.953 110.918,362.953C79.803,362.953 54.541,339.292 54.541,310.149C54.541,281.006 79.803,257.345 110.918,257.345ZM110.918,270.546C134.255,270.546 153.201,288.291 153.201,310.149C153.201,332.006 134.255,349.752 110.918,349.752C87.582,349.752 68.635,332.006 68.635,310.149C68.635,288.291 87.582,270.546 110.918,270.546Z" style="fill:white;"/>
        </g>
        <g transform="matrix(1,0,0,1,227.705,-52.804)">
            <path d="M110.918,278.784C128.229,278.784 142.283,292.838 142.283,310.149C142.283,327.46 128.229,341.514 110.918,341.514C93.607,341.514 79.553,327.46 79.553,310.149C79.553,292.838 93.607,278.784 110.918,278.784ZM110.918,294.466C119.573,294.466 126.6,301.494 126.6,310.149C126.6,318.804 119.573,325.831 110.918,325.831C102.263,325.831 95.236,318.804 95.236,310.149C95.236,301.494 102.263,294.466 110.918,294.466Z" style="fill:white;"/>
        </g>
        <path d="M57.181,294.146C57.181,294.146 37.866,292.839 35.325,278.784C32.784,264.73 34.055,214.864 42.313,213.593C50.571,212.323 130.293,187.231 135.375,188.501C140.457,189.772 153.161,193.266 153.797,204.541C154.432,215.816 151.891,238.367 163.325,246.943C174.759,255.519 210.015,245.037 222.72,236.779C235.424,228.521 251.812,200.845 247.494,175.161C241.459,139.27 212.556,100.203 214.144,99.568C215.732,98.933 234.55,86.243 252.082,110.128C269.615,134.013 310.778,179.75 314.335,182.037" style="fill:none;stroke:white;stroke-width:13.82px;stroke-linecap:round;stroke-linejoin:round;"/>
        <path d="M163.325,290.66C206.623,284.286 252.995,265.229 259.03,262.37" style="fill:none;stroke:white;stroke-width:13.82px;stroke-linecap:round;stroke-linejoin:round;"/>
        <path d="M292.062,273.487C292.062,273.487 290.851,281.745 282.246,279.204C273.64,276.663 264.747,273.804 264.112,243.313C263.477,212.822 303.688,168.639 356.539,188.365C401.64,205.199 371.149,220.445 372.737,218.857" style="fill:none;stroke:white;stroke-width:13.82px;stroke-linecap:round;stroke-linejoin:round;"/>
        <path d="M214.081,99.696C214.081,99.696 199.163,134.243 180.868,118.489C162.574,102.735 209.761,94.36 214.081,99.696Z" style="fill:none;stroke:white;stroke-width:13.82px;stroke-linecap:round;stroke-linejoin:round;"/>
        <path d="M209.327,95.636C209.327,95.636 207.802,65.892 231.941,57.253C256.08,48.613 262.178,45.31 264.211,61.064C265.655,72.255 269.039,84.187 251.761,87.744C234.482,91.301 209.327,95.636 209.327,95.636Z" style="fill:none;stroke:white;stroke-width:13.82px;stroke-linecap:round;stroke-linejoin:round;"/>
        <path d="M29.523,219.011C11.472,206.815 17.956,198.313 25.363,194.891C43.472,186.522 130.913,168.851 138.18,168.8C148.415,168.729 156.533,187.234 144.082,191.553" style="fill:none;stroke:white;stroke-width:13.82px;stroke-linecap:round;stroke-linejoin:round;"/>
        <path d="M34.153,191.553C29.465,169.66 20.088,125.874 20.088,125.874L119.083,106.563C119.083,106.563 128.027,148.054 132.499,168.8" style="fill:white;stroke:white;stroke-width:13.82px;"/>
    </g>
</svg>
